# xmcd
#
# Track frame offsets:
#	150
#	21653
#	34535
#	65568
#	83825
#	95009
#	152285
#	162702
#	205862
#	225149
#	250515
#	267131
#	292302
#	314265
#
# Disc length: 4568 seconds
#
# Revision: 3
# Processed by: cddbd v1.5.2PL0 Copyright (c) Steve Scherf et al.
# Submitted via: audiograbber 1.83.01
#
DISCID=b811d60e
DTITLE=Gary Moore - Blues And Beyond CD1
DYEAR=2017
DGENRE=Blues Rock
TTITLE0=Enough Of The Blues
TTITLE1=Tell Me Woman
TTITLE2=Stormy Monday
TTITLE3=That's Why I Play The Blues
TTITLE4=Power Of The Blues
TTITLE5=Ball And Chain
TTITLE6=Looking Back
TTITLE7=Surrender
TTITLE8=Cold Black Night
TTITLE9=There's A Hole
TTITLE10=Getaway Blues
TTITLE11=We Want Love
TTITLE12=Memory Pain
TTITLE13=The Prophet
EXTD=Release-Date: 24.11.2017\n\nMARO\n
EXTT0=
EXTT1=
EXTT2=
EXTT3=
EXTT4=
EXTT5=
EXTT6=
EXTT7=
EXTT8=
EXTT9=
EXTT10=
EXTT11=
EXTT12=
EXTT13=
PLAYORDER=
